<mxfile host="Electron" modified="2023-04-28T09:57:11.999Z" agent="Mozilla/5.0 (Windows NT 10.0; Win64; x64) AppleWebKit/537.36 (KHTML, like Gecko) draw.io/21.2.1 Chrome/112.0.5615.87 Electron/24.1.2 Safari/537.36" etag="BOcIy-2hRZfDXMUBV1-A" version="21.2.1" type="device">
  <diagram name="Page-1" id="k8v3rHDn6FhqdRON8lOe">
    <mxGraphModel dx="1206" dy="702" grid="1" gridSize="10" guides="1" tooltips="1" connect="1" arrows="1" fold="1" page="1" pageScale="1" pageWidth="850" pageHeight="1100" math="0" shadow="0">
      <root>
        <mxCell id="0" />
        <mxCell id="1" parent="0" />
        <mxCell id="pBrJ_K6vvV4SP7ELr4cM-29" value="" style="rounded=0;whiteSpace=wrap;html=1;fillColor=none;dashed=1;dashPattern=8 8;strokeColor=#1A1A1A;" parent="1" vertex="1">
          <mxGeometry x="80" y="290" width="610" height="470" as="geometry" />
        </mxCell>
        <mxCell id="pBrJ_K6vvV4SP7ELr4cM-28" value="&lt;b&gt;NPU Backend 1.0â„¢&lt;/b&gt;&lt;br&gt;[software system]&lt;br&gt;" style="rounded=0;whiteSpace=wrap;html=1;fillColor=#f5f5f5;fontColor=#333333;strokeColor=#666666;" parent="1" vertex="1">
          <mxGeometry x="80" y="730" width="130" height="30" as="geometry" />
        </mxCell>
        <mxCell id="pBrJ_K6vvV4SP7ELr4cM-30" value="&lt;b&gt;Database&lt;/b&gt;&lt;br&gt;[MS SQL]&lt;br&gt;&lt;br&gt;Holds user and application information&lt;br&gt;" style="shape=cylinder3;whiteSpace=wrap;html=1;boundedLbl=1;backgroundOutline=1;size=15;fillColor=#e1d5e7;strokeColor=#9673a6;" parent="1" vertex="1">
          <mxGeometry x="180" y="552.5" width="97.5" height="125" as="geometry" />
        </mxCell>
        <mxCell id="pBrJ_K6vvV4SP7ELr4cM-48" style="edgeStyle=orthogonalEdgeStyle;rounded=0;orthogonalLoop=1;jettySize=auto;html=1;exitX=0;exitY=0.5;exitDx=0;exitDy=0;entryX=1;entryY=0.5;entryDx=0;entryDy=0;entryPerimeter=0;" parent="1" source="pBrJ_K6vvV4SP7ELr4cM-31" target="pBrJ_K6vvV4SP7ELr4cM-30" edge="1">
          <mxGeometry relative="1" as="geometry" />
        </mxCell>
        <mxCell id="pBrJ_K6vvV4SP7ELr4cM-49" value="Read, Write and&lt;br&gt;Updates" style="edgeLabel;html=1;align=center;verticalAlign=middle;resizable=0;points=[];" parent="pBrJ_K6vvV4SP7ELr4cM-48" vertex="1" connectable="0">
          <mxGeometry x="0.1016" y="-1" relative="1" as="geometry">
            <mxPoint as="offset" />
          </mxGeometry>
        </mxCell>
        <mxCell id="pBrJ_K6vvV4SP7ELr4cM-55" style="edgeStyle=orthogonalEdgeStyle;rounded=0;orthogonalLoop=1;jettySize=auto;html=1;entryX=0.5;entryY=0;entryDx=0;entryDy=0;" parent="1" source="pBrJ_K6vvV4SP7ELr4cM-31" target="pBrJ_K6vvV4SP7ELr4cM-53" edge="1">
          <mxGeometry relative="1" as="geometry" />
        </mxCell>
        <mxCell id="pBrJ_K6vvV4SP7ELr4cM-56" value="Consumes data through&lt;br&gt;[Apache Spark]" style="edgeLabel;html=1;align=center;verticalAlign=middle;resizable=0;points=[];" parent="pBrJ_K6vvV4SP7ELr4cM-55" vertex="1" connectable="0">
          <mxGeometry x="-0.2888" y="1" relative="1" as="geometry">
            <mxPoint x="-1" y="10" as="offset" />
          </mxGeometry>
        </mxCell>
        <mxCell id="pBrJ_K6vvV4SP7ELr4cM-60" style="edgeStyle=orthogonalEdgeStyle;rounded=0;orthogonalLoop=1;jettySize=auto;html=1;exitX=1;exitY=0.75;exitDx=0;exitDy=0;entryX=0.25;entryY=0;entryDx=0;entryDy=0;dashed=1;" parent="1" source="pBrJ_K6vvV4SP7ELr4cM-31" target="pBrJ_K6vvV4SP7ELr4cM-54" edge="1">
          <mxGeometry relative="1" as="geometry" />
        </mxCell>
        <mxCell id="pBrJ_K6vvV4SP7ELr4cM-63" value="Sends NPU data&lt;br&gt;for analysis through &lt;br&gt;[JSON]" style="edgeLabel;html=1;align=center;verticalAlign=middle;resizable=0;points=[];" parent="pBrJ_K6vvV4SP7ELr4cM-60" vertex="1" connectable="0">
          <mxGeometry x="-0.0323" y="-3" relative="1" as="geometry">
            <mxPoint as="offset" />
          </mxGeometry>
        </mxCell>
        <mxCell id="pBrJ_K6vvV4SP7ELr4cM-31" value="API Application&lt;br&gt;[C#/.NET]&lt;br&gt;&lt;br&gt;Provides platform functionality using C# API." style="rounded=0;whiteSpace=wrap;html=1;fillColor=#ffcc99;strokeColor=#36393d;" parent="1" vertex="1">
          <mxGeometry x="465" y="575" width="160" height="80" as="geometry" />
        </mxCell>
        <mxCell id="pBrJ_K6vvV4SP7ELr4cM-43" style="edgeStyle=orthogonalEdgeStyle;rounded=0;orthogonalLoop=1;jettySize=auto;html=1;exitX=0.5;exitY=1;exitDx=0;exitDy=0;entryX=0.25;entryY=0;entryDx=0;entryDy=0;" parent="1" source="pBrJ_K6vvV4SP7ELr4cM-32" target="pBrJ_K6vvV4SP7ELr4cM-31" edge="1">
          <mxGeometry relative="1" as="geometry" />
        </mxCell>
        <mxCell id="pBrJ_K6vvV4SP7ELr4cM-50" value="Makes API calls to&lt;br&gt;[JSON]" style="edgeLabel;html=1;align=center;verticalAlign=middle;resizable=0;points=[];" parent="pBrJ_K6vvV4SP7ELr4cM-43" vertex="1" connectable="0">
          <mxGeometry x="0.0591" y="2" relative="1" as="geometry">
            <mxPoint x="-37" as="offset" />
          </mxGeometry>
        </mxCell>
        <mxCell id="pBrJ_K6vvV4SP7ELr4cM-32" value="&lt;b&gt;Web Application&lt;/b&gt;&lt;br&gt;[MAUI&amp;nbsp;+ Blazor]&lt;br&gt;&lt;br&gt;Browser application of the platform which allows the user to perform actions." style="rounded=0;whiteSpace=wrap;html=1;fillColor=#f5f5f5;strokeColor=#666666;fontColor=#333333;" parent="1" vertex="1">
          <mxGeometry x="150" y="320" width="190" height="90" as="geometry" />
        </mxCell>
        <mxCell id="pBrJ_K6vvV4SP7ELr4cM-36" style="edgeStyle=orthogonalEdgeStyle;rounded=0;orthogonalLoop=1;jettySize=auto;html=1;exitX=0.25;exitY=1;exitDx=0;exitDy=0;entryX=0.5;entryY=0;entryDx=0;entryDy=0;" parent="1" source="pBrJ_K6vvV4SP7ELr4cM-35" target="pBrJ_K6vvV4SP7ELr4cM-32" edge="1">
          <mxGeometry relative="1" as="geometry" />
        </mxCell>
        <mxCell id="pBrJ_K6vvV4SP7ELr4cM-39" value="Visits npu.creator.you&lt;br&gt;in browser&lt;br&gt;[HTTPS]" style="edgeLabel;html=1;align=center;verticalAlign=middle;resizable=0;points=[];" parent="pBrJ_K6vvV4SP7ELr4cM-36" vertex="1" connectable="0">
          <mxGeometry x="-0.1778" y="1" relative="1" as="geometry">
            <mxPoint as="offset" />
          </mxGeometry>
        </mxCell>
        <mxCell id="pBrJ_K6vvV4SP7ELr4cM-38" style="edgeStyle=orthogonalEdgeStyle;rounded=0;orthogonalLoop=1;jettySize=auto;html=1;exitX=0.75;exitY=1;exitDx=0;exitDy=0;entryX=0.5;entryY=0;entryDx=0;entryDy=0;" parent="1" source="pBrJ_K6vvV4SP7ELr4cM-35" target="pBrJ_K6vvV4SP7ELr4cM-37" edge="1">
          <mxGeometry relative="1" as="geometry" />
        </mxCell>
        <mxCell id="pBrJ_K6vvV4SP7ELr4cM-40" value="Downloads app from store&lt;br&gt;and uses on desired platform" style="edgeLabel;html=1;align=center;verticalAlign=middle;resizable=0;points=[];" parent="pBrJ_K6vvV4SP7ELr4cM-38" vertex="1" connectable="0">
          <mxGeometry x="0.119" y="2" relative="1" as="geometry">
            <mxPoint x="14" as="offset" />
          </mxGeometry>
        </mxCell>
        <mxCell id="pBrJ_K6vvV4SP7ELr4cM-35" value="&lt;b&gt;User&lt;/b&gt;&lt;br&gt;[person]&lt;br&gt;&lt;br&gt;A brick building enthusiast" style="rounded=0;whiteSpace=wrap;html=1;fillColor=#f8cecc;strokeColor=#b85450;" parent="1" vertex="1">
          <mxGeometry x="320" y="110" width="160" height="90" as="geometry" />
        </mxCell>
        <mxCell id="pBrJ_K6vvV4SP7ELr4cM-44" style="edgeStyle=orthogonalEdgeStyle;rounded=0;orthogonalLoop=1;jettySize=auto;html=1;exitX=0.5;exitY=1;exitDx=0;exitDy=0;" parent="1" source="pBrJ_K6vvV4SP7ELr4cM-37" target="pBrJ_K6vvV4SP7ELr4cM-31" edge="1">
          <mxGeometry relative="1" as="geometry" />
        </mxCell>
        <mxCell id="pBrJ_K6vvV4SP7ELr4cM-52" value="Makes API calls to&lt;br style=&quot;border-color: var(--border-color);&quot;&gt;[JSON]" style="edgeLabel;html=1;align=center;verticalAlign=middle;resizable=0;points=[];" parent="pBrJ_K6vvV4SP7ELr4cM-44" vertex="1" connectable="0">
          <mxGeometry x="-0.2525" y="-1" relative="1" as="geometry">
            <mxPoint as="offset" />
          </mxGeometry>
        </mxCell>
        <mxCell id="pBrJ_K6vvV4SP7ELr4cM-37" value="&lt;b&gt;Standalone App&lt;/b&gt;&lt;br&gt;[MAUI]&lt;br&gt;&lt;br&gt;Standalone multi-platform application (supports mobile) which allows the user to perform actions." style="rounded=0;whiteSpace=wrap;html=1;fillColor=#f5f5f5;strokeColor=#666666;fontColor=#333333;" parent="1" vertex="1">
          <mxGeometry x="450" y="320" width="190" height="90" as="geometry" />
        </mxCell>
        <mxCell id="pBrJ_K6vvV4SP7ELr4cM-53" value="&lt;b&gt;Great NPU directory&lt;/b&gt;&lt;br&gt;[software system]&lt;br&gt;&lt;br&gt;Facilitates information about the parts which are manufactured." style="rounded=0;whiteSpace=wrap;html=1;fillColor=#bac8d3;strokeColor=#23445d;" parent="1" vertex="1">
          <mxGeometry x="455" y="810" width="180" height="90" as="geometry" />
        </mxCell>
        <mxCell id="pBrJ_K6vvV4SP7ELr4cM-57" style="edgeStyle=orthogonalEdgeStyle;rounded=0;orthogonalLoop=1;jettySize=auto;html=1;entryX=1;entryY=0.5;entryDx=0;entryDy=0;dashed=1;" parent="1" source="pBrJ_K6vvV4SP7ELr4cM-54" target="pBrJ_K6vvV4SP7ELr4cM-53" edge="1">
          <mxGeometry relative="1" as="geometry" />
        </mxCell>
        <mxCell id="pBrJ_K6vvV4SP7ELr4cM-58" value="Consumes data through&lt;br&gt;[Apache Spark]" style="edgeLabel;html=1;align=center;verticalAlign=middle;resizable=0;points=[];" parent="pBrJ_K6vvV4SP7ELr4cM-57" vertex="1" connectable="0">
          <mxGeometry x="0.1994" relative="1" as="geometry">
            <mxPoint x="19" as="offset" />
          </mxGeometry>
        </mxCell>
        <mxCell id="pBrJ_K6vvV4SP7ELr4cM-61" style="edgeStyle=orthogonalEdgeStyle;rounded=0;orthogonalLoop=1;jettySize=auto;html=1;exitX=0.75;exitY=0;exitDx=0;exitDy=0;entryX=1;entryY=0.25;entryDx=0;entryDy=0;dashed=1;" parent="1" source="pBrJ_K6vvV4SP7ELr4cM-54" target="pBrJ_K6vvV4SP7ELr4cM-31" edge="1">
          <mxGeometry relative="1" as="geometry" />
        </mxCell>
        <mxCell id="pBrJ_K6vvV4SP7ELr4cM-64" value="Receives request &lt;br&gt;response from&lt;br&gt;[JSON]" style="edgeLabel;html=1;align=center;verticalAlign=middle;resizable=0;points=[];" parent="pBrJ_K6vvV4SP7ELr4cM-61" vertex="1" connectable="0">
          <mxGeometry x="-0.1462" y="-1" relative="1" as="geometry">
            <mxPoint as="offset" />
          </mxGeometry>
        </mxCell>
        <mxCell id="pBrJ_K6vvV4SP7ELr4cM-54" value="&lt;b&gt;NPU AI Classifier&lt;/b&gt;&lt;br&gt;[software system]&lt;br&gt;&lt;br&gt;Automatically detects and classifies brick parts." style="rounded=0;whiteSpace=wrap;html=1;fillColor=#bac8d3;strokeColor=#23445d;" parent="1" vertex="1">
          <mxGeometry x="800" y="810" width="150" height="90" as="geometry" />
        </mxCell>
      </root>
    </mxGraphModel>
  </diagram>
</mxfile>
